<mxfile host="app.diagrams.net" modified="2024-05-14T03:45:29.262Z" agent="Mozilla/5.0 (Windows NT 10.0; Win64; x64) AppleWebKit/537.36 (KHTML, like Gecko) Chrome/124.0.0.0 Safari/537.36" etag="L-t58TCGKSIi_syBBIfD" version="24.4.0" type="device">
  <diagram id="C5RBs43oDa-KdzZeNtuy" name="Page-1">
    <mxGraphModel dx="10345" dy="7045" grid="1" gridSize="10" guides="1" tooltips="1" connect="1" arrows="1" fold="1" page="1" pageScale="1" pageWidth="827" pageHeight="1169" math="0" shadow="0">
      <root>
        <mxCell id="WIyWlLk6GJQsqaUBKTNV-0" />
        <mxCell id="WIyWlLk6GJQsqaUBKTNV-1" parent="WIyWlLk6GJQsqaUBKTNV-0" />
        <mxCell id="u7RpA49vi22Ftbv2sqld-20" value="SanPham" style="html=1;overflow=block;blockSpacing=1;swimlane;childLayout=stackLayout;horizontal=1;horizontalStack=0;resizeParent=1;resizeParentMax=0;resizeLast=0;collapsible=0;fontStyle=0;marginBottom=0;swimlaneFillColor=#ffffff;startSize=25;whiteSpace=wrap;fontSize=16.7;align=center;spacing=0;strokeOpacity=100;rounded=1;absoluteArcSize=1;arcSize=9;strokeWidth=0.8;labelBackgroundColor=none;fillColor=#F5AB50;strokeColor=#909090;fontColor=#1A1A1A;" vertex="1" parent="WIyWlLk6GJQsqaUBKTNV-1">
          <mxGeometry x="-6800" y="-5560" width="360" height="460" as="geometry" />
        </mxCell>
        <mxCell id="u7RpA49vi22Ftbv2sqld-21" value="- STT: string&#xa;- Hang: string&#xa;- TenSanPham: string&#xa;- Gia: int&#xa;- SoLuong: int" style="part=1;html=1;resizeHeight=0;strokeColor=none;fillColor=none;align=left;verticalAlign=middle;spacingLeft=4;spacingRight=4;overflow=hidden;rotatable=0;points=[[0,0.5],[1,0.5]];portConstraint=eastwest;swimlaneFillColor=#ffffff;strokeOpacity=100;whiteSpace=wrap;fontSize=16.7;labelBackgroundColor=none;fontColor=#1A1A1A;" vertex="1" parent="u7RpA49vi22Ftbv2sqld-20">
          <mxGeometry y="25" width="360" height="135" as="geometry" />
        </mxCell>
        <mxCell id="u7RpA49vi22Ftbv2sqld-22" value="" style="line;strokeWidth=1;fillColor=none;align=left;verticalAlign=middle;spacingTop=-1;spacingLeft=3;spacingRight=3;rotatable=0;labelPosition=right;points=[];portConstraint=eastwest;labelBackgroundColor=none;strokeColor=#909090;fontColor=#1A1A1A;" vertex="1" parent="u7RpA49vi22Ftbv2sqld-20">
          <mxGeometry y="160" width="360" height="8" as="geometry" />
        </mxCell>
        <mxCell id="u7RpA49vi22Ftbv2sqld-23" value="+ SanPham()&#xa;+ SanPham(string. string, string, int, int)&#xa;+ setSTT(string): void&#xa;+ setHang(string): void&#xa;+ setTenSanPham(string): void&#xa;+ setGia(int): void&#xa;+ setSoLuong(int): void&#xa;+ getSTT() const: string&#xa;+ getHang() const: string&#xa;+ getTenSanPham() const: string&#xa;+ getGia() const: int&#xa;+ getSoLuong() const: int " style="part=1;html=1;resizeHeight=0;strokeColor=none;fillColor=none;align=left;verticalAlign=middle;spacingLeft=4;spacingRight=4;overflow=hidden;rotatable=0;points=[[0,0.5],[1,0.5]];portConstraint=eastwest;swimlaneFillColor=#ffffff;strokeOpacity=100;whiteSpace=wrap;fontSize=16.7;labelBackgroundColor=none;fontColor=#1A1A1A;" vertex="1" parent="u7RpA49vi22Ftbv2sqld-20">
          <mxGeometry y="168" width="360" height="292" as="geometry" />
        </mxCell>
        <mxCell id="u7RpA49vi22Ftbv2sqld-24" value="Admin" style="html=1;overflow=block;blockSpacing=1;swimlane;childLayout=stackLayout;horizontal=1;horizontalStack=0;resizeParent=1;resizeParentMax=0;resizeLast=0;collapsible=0;fontStyle=0;marginBottom=0;swimlaneFillColor=#ffffff;startSize=25;whiteSpace=wrap;fontSize=16.7;align=center;spacing=0;strokeOpacity=100;rounded=1;absoluteArcSize=1;arcSize=9;strokeWidth=0.8;labelBackgroundColor=none;fillColor=#F5AB50;strokeColor=#909090;fontColor=#1A1A1A;" vertex="1" parent="WIyWlLk6GJQsqaUBKTNV-1">
          <mxGeometry x="-6280" y="-5000" width="360" height="406.186410685268" as="geometry" />
        </mxCell>
        <mxCell id="u7RpA49vi22Ftbv2sqld-25" value="- un: string&lt;br&gt;- pw: string" style="part=1;html=1;resizeHeight=0;strokeColor=none;fillColor=none;align=left;verticalAlign=middle;spacingLeft=4;spacingRight=4;overflow=hidden;rotatable=0;points=[[0,0.5],[1,0.5]];portConstraint=eastwest;swimlaneFillColor=#ffffff;strokeOpacity=100;whiteSpace=wrap;fontSize=16.7;labelBackgroundColor=none;fontColor=#1A1A1A;" vertex="1" parent="u7RpA49vi22Ftbv2sqld-24">
          <mxGeometry y="25" width="360" height="65" as="geometry" />
        </mxCell>
        <mxCell id="u7RpA49vi22Ftbv2sqld-26" value="" style="line;strokeWidth=1;fillColor=none;align=left;verticalAlign=middle;spacingTop=-1;spacingLeft=3;spacingRight=3;rotatable=0;labelPosition=right;points=[];portConstraint=eastwest;labelBackgroundColor=none;strokeColor=#909090;fontColor=#1A1A1A;" vertex="1" parent="u7RpA49vi22Ftbv2sqld-24">
          <mxGeometry y="90" width="360" height="8" as="geometry" />
        </mxCell>
        <mxCell id="u7RpA49vi22Ftbv2sqld-27" value="+ Admin()&#xa;+ Admin(string. string)&#xa;+ setUN(string): void&#xa;+ setPW(string): void&#xa;+ getUN() const: string&#xa;+ getPW() const: string&#xa;+ XoaTK(vector&amp;lt;User&amp;gt;, string): void&#xa;+ MaxSTT(vector&amp;lt;SanPham&amp;gt;): string&#xa;+ DanhSachBan(): void&#xa;+ ad1(vector&amp;lt;User&amp;gt;): void&#xa;+ ad2(vector&amp;lt;SanPham&amp;gt;, string): void&#xa;+ ad3(vector&amp;lt;SanPham&amp;gt;, string): void&#xa;+ ad4(vector&amp;lt;SanPham&amp;gt;, string, int): void&#xa;+ ad1(vector&amp;lt;User&amp;gt;): void" style="part=1;html=1;resizeHeight=0;strokeColor=none;fillColor=none;align=left;verticalAlign=middle;spacingLeft=4;spacingRight=4;overflow=hidden;rotatable=0;points=[[0,0.5],[1,0.5]];portConstraint=eastwest;swimlaneFillColor=#ffffff;strokeOpacity=100;whiteSpace=wrap;fontSize=16.7;labelBackgroundColor=none;fontColor=#1A1A1A;" vertex="1" parent="u7RpA49vi22Ftbv2sqld-24">
          <mxGeometry y="98" width="360" height="308.186410685268" as="geometry" />
        </mxCell>
        <mxCell id="u7RpA49vi22Ftbv2sqld-28" value="User" style="html=1;overflow=block;blockSpacing=1;swimlane;childLayout=stackLayout;horizontal=1;horizontalStack=0;resizeParent=1;resizeParentMax=0;resizeLast=0;collapsible=0;fontStyle=0;marginBottom=0;swimlaneFillColor=#ffffff;startSize=25;whiteSpace=wrap;fontSize=16.7;align=center;spacing=0;strokeOpacity=100;rounded=1;absoluteArcSize=1;arcSize=9;strokeWidth=0.8;labelBackgroundColor=none;fillColor=#F5AB50;strokeColor=#909090;fontColor=#1A1A1A;" vertex="1" parent="WIyWlLk6GJQsqaUBKTNV-1">
          <mxGeometry x="-7280" y="-5000" width="360" height="540" as="geometry" />
        </mxCell>
        <mxCell id="u7RpA49vi22Ftbv2sqld-29" value="- un: string&lt;br&gt;- pw: string&lt;br&gt;- TongSoLuong: int&lt;br&gt;- TongTien: long long" style="part=1;html=1;resizeHeight=0;strokeColor=none;fillColor=none;align=left;verticalAlign=middle;spacingLeft=4;spacingRight=4;overflow=hidden;rotatable=0;points=[[0,0.5],[1,0.5]];portConstraint=eastwest;swimlaneFillColor=#ffffff;strokeOpacity=100;whiteSpace=wrap;fontSize=16.7;labelBackgroundColor=none;fontColor=#1A1A1A;" vertex="1" parent="u7RpA49vi22Ftbv2sqld-28">
          <mxGeometry y="25" width="360" height="115" as="geometry" />
        </mxCell>
        <mxCell id="u7RpA49vi22Ftbv2sqld-30" value="" style="line;strokeWidth=1;fillColor=none;align=left;verticalAlign=middle;spacingTop=-1;spacingLeft=3;spacingRight=3;rotatable=0;labelPosition=right;points=[];portConstraint=eastwest;labelBackgroundColor=none;strokeColor=#909090;fontColor=#1A1A1A;" vertex="1" parent="u7RpA49vi22Ftbv2sqld-28">
          <mxGeometry y="140" width="360" height="8" as="geometry" />
        </mxCell>
        <mxCell id="u7RpA49vi22Ftbv2sqld-31" value="+ User()&#xa;+ User(string. string, int, long long)&#xa;+ setUN(string): void&#xa;+ setPW(string): void&#xa;+ setTongSoLuong(int): void&#xa;+ setTongTien(long long): void&#xa;+ getUN() const: string&#xa;+ getPW() const: string&#xa;+ getTongSoLuong(int): int&#xa;+ getTongTien() const: long long &#xa;+ Mua(vector&amp;lt;SanPham&amp;gt;, string, int): void&#xa;+ GiamDan(vector&amp;lt;SanPham&amp;gt;): void&#xa;+ TangDan(vector&amp;lt;SanPham&amp;gt;): void&#xa;+ us1(vector&amp;lt;SanPham&amp;gt;): void&#xa;+ convert(string): string&#xa;+ us2(vector&amp;lt;SanPham&amp;gt;, string): void&#xa;+ us3(vector&amp;lt;SanPham&amp;gt;, string): void&#xa;+ us4(vector&amp;lt;SanPham&amp;gt;): void" style="part=1;html=1;resizeHeight=0;strokeColor=none;fillColor=none;align=left;verticalAlign=middle;spacingLeft=4;spacingRight=4;overflow=hidden;rotatable=0;points=[[0,0.5],[1,0.5]];portConstraint=eastwest;swimlaneFillColor=#ffffff;strokeOpacity=100;whiteSpace=wrap;fontSize=16.7;labelBackgroundColor=none;fontColor=#1A1A1A;" vertex="1" parent="u7RpA49vi22Ftbv2sqld-28">
          <mxGeometry y="148" width="360" height="392" as="geometry" />
        </mxCell>
        <mxCell id="u7RpA49vi22Ftbv2sqld-39" value="" style="endArrow=diamondThin;endFill=1;endSize=24;html=1;rounded=0;exitX=0.44;exitY=-0.001;exitDx=0;exitDy=0;exitPerimeter=0;entryX=0.328;entryY=1.002;entryDx=0;entryDy=0;entryPerimeter=0;labelBackgroundColor=none;fontColor=default;strokeColor=#182E3E;fontStyle=0;fontSize=11;" edge="1" parent="WIyWlLk6GJQsqaUBKTNV-1" source="u7RpA49vi22Ftbv2sqld-28" target="u7RpA49vi22Ftbv2sqld-23">
          <mxGeometry width="160" relative="1" as="geometry">
            <mxPoint x="-6620" y="-4910" as="sourcePoint" />
            <mxPoint x="-6680" y="-5090" as="targetPoint" />
          </mxGeometry>
        </mxCell>
        <mxCell id="u7RpA49vi22Ftbv2sqld-41" value="" style="endArrow=diamondThin;endFill=1;endSize=24;html=1;rounded=0;exitX=0.556;exitY=0;exitDx=0;exitDy=0;exitPerimeter=0;labelBackgroundColor=none;fontColor=default;strokeColor=#182E3E;" edge="1" parent="WIyWlLk6GJQsqaUBKTNV-1" source="u7RpA49vi22Ftbv2sqld-24">
          <mxGeometry width="160" relative="1" as="geometry">
            <mxPoint x="-5969.84" y="-4980" as="sourcePoint" />
            <mxPoint x="-6560" y="-5100" as="targetPoint" />
          </mxGeometry>
        </mxCell>
        <mxCell id="u7RpA49vi22Ftbv2sqld-46" value="manages" style="text;html=1;align=center;verticalAlign=middle;resizable=0;points=[];autosize=1;strokeColor=none;fillColor=none;fontSize=15;flipH=0;flipV=1;labelBackgroundColor=none;fontColor=#1A1A1A;fontStyle=1" vertex="1" parent="WIyWlLk6GJQsqaUBKTNV-1">
          <mxGeometry x="-6340" y="-5060" width="90" height="30" as="geometry" />
        </mxCell>
        <mxCell id="u7RpA49vi22Ftbv2sqld-54" value="" style="endArrow=none;html=1;rounded=0;entryX=-0.002;entryY=0.579;entryDx=0;entryDy=0;entryPerimeter=0;labelBackgroundColor=none;fontColor=default;strokeColor=#182E3E;exitX=1.009;exitY=0.328;exitDx=0;exitDy=0;exitPerimeter=0;" edge="1" parent="WIyWlLk6GJQsqaUBKTNV-1" source="u7RpA49vi22Ftbv2sqld-31" target="u7RpA49vi22Ftbv2sqld-27">
          <mxGeometry width="50" height="50" relative="1" as="geometry">
            <mxPoint x="-7000" y="-4680" as="sourcePoint" />
            <mxPoint x="-6660" y="-4840" as="targetPoint" />
          </mxGeometry>
        </mxCell>
        <mxCell id="u7RpA49vi22Ftbv2sqld-55" value="manages" style="text;html=1;align=center;verticalAlign=middle;resizable=0;points=[];autosize=1;strokeColor=none;fillColor=none;fontSize=15;flipH=0;flipV=1;labelBackgroundColor=none;fontColor=#1A1A1A;fontStyle=1" vertex="1" parent="WIyWlLk6GJQsqaUBKTNV-1">
          <mxGeometry x="-6650" y="-4740" width="90" height="30" as="geometry" />
        </mxCell>
        <mxCell id="u7RpA49vi22Ftbv2sqld-57" value="uses" style="text;html=1;align=center;verticalAlign=middle;resizable=0;points=[];autosize=1;strokeColor=none;fillColor=none;fontSize=15;flipH=0;flipV=1;labelBackgroundColor=none;fontColor=#1A1A1A;fontStyle=1" vertex="1" parent="WIyWlLk6GJQsqaUBKTNV-1">
          <mxGeometry x="-6955" y="-5060" width="60" height="30" as="geometry" />
        </mxCell>
      </root>
    </mxGraphModel>
  </diagram>
</mxfile>
